<?xml version="1.0" encoding="UTF-8" standalone="no"?>
<!-- Created with Inkscape (http://www.inkscape.org/) -->

<svg
   width="40"
   height="40"
   viewBox="0 0 10.583333 10.583333"
   version="1.1"
   id="svg1192"
   xml:space="preserve"
   inkscape:version="1.2.2 (732a01da63, 2022-12-09)"
   sodipodi:docname="icon-desing.svg"
   xmlns:inkscape="http://www.inkscape.org/namespaces/inkscape"
   xmlns:sodipodi="http://sodipodi.sourceforge.net/DTD/sodipodi-0.dtd"
   xmlns="http://www.w3.org/2000/svg"
   xmlns:svg="http://www.w3.org/2000/svg"><sodipodi:namedview
     id="namedview1194"
     pagecolor="#ffffff"
     bordercolor="#000000"
     borderopacity="0.25"
     inkscape:showpageshadow="2"
     inkscape:pageopacity="0.0"
     inkscape:pagecheckerboard="0"
     inkscape:deskcolor="#d1d1d1"
     inkscape:document-units="mm"
     showgrid="false"
     inkscape:zoom="11.930303"
     inkscape:cx="8.7592075"
     inkscape:cy="18.775718"
     inkscape:window-width="1920"
     inkscape:window-height="1017"
     inkscape:window-x="-8"
     inkscape:window-y="-8"
     inkscape:window-maximized="1"
     inkscape:current-layer="layer1-5" /><defs
     id="defs1189"><linearGradient
       id="paint0_linear"
       x1="3.69867"
       y1="4.89825"
       x2="22.5688"
       y2="37.2522"
       gradientUnits="userSpaceOnUse"><stop
         offset="0.259336"
         stop-color="#FFDB6E"
         id="stop1779" /><stop
         offset="1"
         stop-color="#FFBC5E"
         id="stop1781" /></linearGradient><linearGradient
       id="paint1_linear"
       x1="1.17724"
       y1="18.7359"
       x2="2.78931"
       y2="19.2346"
       gradientUnits="userSpaceOnUse"><stop
         offset="0.259336"
         stop-color="#FFDB6E"
         id="stop1784" /><stop
         offset="1"
         stop-color="#FFBC5E"
         id="stop1786" /></linearGradient><linearGradient
       id="paint3_linear"
       x1="3.26667"
       y1="0.900025"
       x2="27.6816"
       y2="36.6089"
       gradientUnits="userSpaceOnUse"><stop
         offset="0.259336"
         stop-color="#FFDB6E"
         id="stop1794" /><stop
         offset="1"
         stop-color="#FFBC5E"
         id="stop1796" /></linearGradient><linearGradient
       id="paint5_linear"
       x1="14.1208"
       y1="12.223"
       x2="27.511"
       y2="27.0155"
       gradientUnits="userSpaceOnUse"><stop
         offset="0.259336"
         stop-color="#FFDB6E"
         id="stop1804" /><stop
         offset="1"
         stop-color="#FFBC5E"
         id="stop1806" /></linearGradient><linearGradient
       id="paint7_linear"
       x1="16.2288"
       y1="14.5995"
       x2="25.5157"
       y2="24.8592"
       gradientUnits="userSpaceOnUse"><stop
         offset="0.259336"
         stop-color="#FFDB6E"
         id="stop1814" /><stop
         offset="1"
         stop-color="#FFBC5E"
         id="stop1816" /></linearGradient></defs><g
     inkscape:label="Capa 1"
     inkscape:groupmode="layer"
     id="layer1"><g
       inkscape:label="Capa 1"
       id="layer1-5"
       transform="matrix(0.15511877,0,0,0.15511877,-0.55750567,-2.9123852)"><path
         style="fill:#ffd76c;stroke-width:0.264583;fill-opacity:1"
         d="m 24.524366,86.499248 c -1.35141,-0.738698 -2.116667,-1.998392 -2.116667,-3.484263 v -1.2338 L 16.695425,78.56582 10.98315,75.350458 10.190967,75.936145 C 9.1148184,76.731776 6.8803386,76.752411 5.8408458,75.976316 3.9541307,74.56768 3.3902118,72.450474 4.4157341,70.625804 5.392309,68.888221 7.9352109,67.909617 9.4153464,68.701761 9.7959027,68.90543 10.263531,68.567655 11.951003,66.870228 l 2.069048,-2.081255 -2.354613,-3.837778 -2.3546134,-3.837779 -1.2213277,0.0059 c -2.4835694,0.01197 -4.0703388,-1.55248 -4.0703388,-4.01311 0,-2.460847 1.5872904,-4.025617 4.0703388,-4.012586 l 1.2213277,0.0064 2.0574284,-3.354727 c 1.131584,-1.845098 2.299756,-3.734758 2.595933,-4.199242 l 0.538507,-0.844518 -1.84028,-1.929842 -1.84028,-1.929842 -0.9630682,0.459256 c -2.9054443,1.385512 -6.2501172,-0.860621 -5.9004902,-3.9625 0.1449477,-1.285973 0.7210382,-2.235537 1.8822712,-3.102521 1.042544,-0.778371 3.2739408,-0.755482 4.3562252,0.04469 l 0.798289,0.590201 5.706169,-3.221782 5.70617,-3.221788 V 23.44261 c 0,-1.382492 0.226375,-1.821822 0.938734,-1.821822 0.775721,0 1.029983,0.403263 0.955125,1.514829 -0.130178,1.932941 2.461508,2.994459 3.643188,1.492198 0.301603,-0.383427 0.54837,-0.962683 0.54837,-1.287235 0,-0.925104 -0.98161,-1.984375 -1.838891,-1.984375 -0.894647,0 -1.407653,-0.546494 -1.290273,-1.3745 0.0765,-0.539616 0.228259,-0.608146 1.31735,-0.59487 1.451316,0.01769 2.863776,0.941049 3.392641,2.217846 l 0.335454,0.809857 h 3.243093 3.243094 l 0.335454,-0.809857 c 0.184499,-0.445421 0.755222,-1.130031 1.268272,-1.521354 1.22862,-0.937112 3.572317,-1.013835 4.724924,-0.154674 1.085615,0.809225 1.761241,2.12016 1.761241,3.417373 v 1.128466 l 5.679774,3.185159 5.67977,3.185161 0.78059,-0.577117 c 0.573069,-0.423688 1.156406,-0.577115 2.194229,-0.577115 1.624798,0 2.532443,0.529974 3.547292,2.071262 l 0.639641,0.971447 h 2.510221 c 2.457477,0 2.500572,-0.01066 2.051077,-0.507347 -0.640054,-0.707252 -0.450911,-1.718045 0.342492,-1.83029 0.472951,-0.06691 0.943835,0.248984 1.918229,1.286846 1.644939,1.752077 1.651834,2.275637 0.0525,3.985456 -0.958934,1.025179 -1.392428,1.306632 -1.918229,1.245436 -0.846103,-0.09847 -1.060249,-1.085566 -0.394988,-1.820672 0.449535,-0.496728 0.405942,-0.507346 -2.082993,-0.507346 h -2.54214 l -0.441907,0.931251 c -0.940281,1.981499 -3.66722,2.852272 -5.516088,1.761414 l -0.928029,-0.54755 -1.843781,2.000977 -1.843778,2.000981 1.746713,2.813444 c 0.960692,1.547392 2.11377,3.430278 2.5624,4.184187 0.79552,1.336858 0.845121,1.370148 2.006311,1.346594 0.654844,-0.01328 1.567067,0.171178 2.027158,0.409906 0.920322,0.477531 1.941592,1.634779 1.941592,2.200103 0,0.28149 0.592894,0.361194 2.686841,0.361194 2.635475,0 2.678025,-0.0097 2.225765,-0.509482 -0.545835,-0.603142 -0.467442,-1.30378 0.191455,-1.711119 0.401389,-0.248142 0.694738,-0.06384 1.918229,1.205146 0.847908,0.879438 1.444377,1.735828 1.444377,2.073788 0,0.33796 -0.596469,1.19435 -1.444377,2.073788 -1.223491,1.26899 -1.51684,1.453288 -1.918229,1.205146 -0.658897,-0.40734 -0.73729,-1.107977 -0.191455,-1.711119 0.45226,-0.499742 0.40971,-0.509482 -2.225765,-0.509482 -2.093947,0 -2.686841,0.0797 -2.686841,0.361194 0,0.558606 -1.017339,1.720686 -1.910887,2.182757 -0.443208,0.229192 -1.355428,0.416136 -2.02716,0.415435 l -1.221328,-0.0013 -2.351502,3.836289 -2.351503,3.836292 2.065938,2.078125 c 1.793732,1.804318 2.13479,2.041276 2.588519,1.79845 0.774787,-0.414653 2.910231,-0.120118 3.818583,0.526687 0.437213,0.311322 0.993793,0.985105 1.236842,1.497296 l 0.441907,0.931251 h 2.542136 c 2.488935,0 2.532528,-0.01061 2.082993,-0.507346 -0.665261,-0.735105 -0.451115,-1.722202 0.394988,-1.820672 0.525801,-0.0612 0.959295,0.220257 1.918229,1.245436 0.695103,0.743119 1.238912,1.578816 1.238912,1.903894 0,0.638789 -1.587559,2.722668 -2.409209,3.162401 -1.239607,0.663419 -2.086861,-0.58124 -1.121658,-1.647775 0.421288,-0.465471 0.342762,-0.483807 -2.072339,-0.483807 H 63.506771 L 62.86713,74.45057 c -1.014849,1.541288 -1.922494,2.071262 -3.547292,2.071262 -1.037823,0 -1.62116,-0.153427 -2.194229,-0.577115 l -0.78059,-0.577117 -5.742561,3.220374 c -5.333312,2.990868 -5.733698,3.266739 -5.618184,3.871013 0.215318,1.126355 -0.249933,1.914998 -1.073372,1.819471 -0.630505,-0.07315 -0.746612,-0.233927 -0.920274,-1.274334 -0.325818,-1.951975 -2.010722,-2.753538 -3.408619,-1.621589 -1.27037,1.028684 -0.475961,3.473672 1.128647,3.473672 0.790204,0 1.540793,0.494318 1.540793,1.014725 0,1.911905 -3.580929,1.15842 -4.821844,-1.014593 l -0.602115,-1.054391 -3.175,-0.0013 -3.174999,-0.0013 -0.529167,0.970037 c -0.731605,1.341133 -1.720366,1.993202 -3.221437,2.124469 -0.921795,0.08061 -1.533792,-0.02902 -2.202521,-0.39456 z m 3.42038,-2.340181 c 0.301603,-0.383426 0.54837,-0.962681 0.54837,-1.287235 0,-0.324554 -0.246767,-0.903809 -0.54837,-1.287235 -0.422979,-0.537729 -0.78159,-0.69714 -1.568297,-0.69714 -0.786707,0 -1.145318,0.159411 -1.568296,0.69714 -0.301604,0.383426 -0.548371,0.962681 -0.548371,1.287235 0,0.324554 0.246767,0.903809 0.548371,1.287235 0.422978,0.537729 0.781589,0.69714 1.568296,0.69714 0.786707,0 1.145318,-0.159411 1.568297,-0.69714 z m 9.212304,-2.808589 c 0.248748,-0.532421 0.079,-0.797989 -1.606791,-2.513743 l -1.884923,-1.918428 -1.902076,1.889382 c -1.732603,1.72104 -1.876729,1.945013 -1.617599,2.513743 0.276283,0.606372 0.377364,0.624358 3.508867,0.624358 3.085012,0 3.236412,-0.02574 3.502522,-0.595312 z M 23.201449,79.723462 c 0,-0.182033 -4.804275,-7.947568 -5.122053,-8.279183 -0.232732,-0.242869 -0.956294,-0.153519 -3.158034,0.389967 -4.151287,1.024718 -4.091823,1.137944 2.591546,4.934537 5.036306,2.860956 5.688541,3.199731 5.688541,2.954679 z m 26.561967,-2.96227 c 6.775111,-3.812034 6.817188,-3.891542 2.608345,-4.928552 -1.564349,-0.385437 -2.928779,-0.617977 -3.032067,-0.516755 -0.208052,0.20389 -4.452112,7.013437 -4.944205,7.932925 -0.170818,0.319172 -0.259749,0.580314 -0.197631,0.580314 0.06212,0 2.566623,-1.38057 5.565558,-3.067932 z m -18.613482,-2.46803 c -0.560908,-0.666004 -1.374243,-1.547284 -1.807411,-1.958401 -0.752096,-0.713812 -0.836652,-0.732785 -1.876827,-0.42114 -1.405908,0.421219 -2.862728,0.0159 -3.988252,-1.109626 -0.709081,-0.709081 -0.934252,-0.789159 -1.805244,-0.642006 -0.547315,0.09247 -1.135028,0.254595 -1.306031,0.360281 -0.211743,0.130865 0.496464,1.499332 2.22037,4.290409 l 2.531285,4.098256 0.96004,-0.08895 c 0.528024,-0.04892 1.2577,0.02734 1.621502,0.169469 0.600173,0.234473 0.837911,0.08489 2.565929,-1.61448 l 1.904473,-1.872901 z m 10.157682,4.525766 0.895083,0.104498 2.535552,-4.102018 c 2.734943,-4.424588 2.723335,-4.354833 0.77651,-4.666145 -0.924483,-0.14783 -1.103791,-0.08825 -1.484931,0.493451 -0.238419,0.363871 -0.987333,0.873098 -1.664253,1.131618 -1.060741,0.4051 -1.398149,0.425264 -2.442403,0.145968 l -1.211639,-0.324062 -1.780272,1.93063 -1.780273,1.93063 1.864495,1.892594 c 1.767535,1.794169 1.904346,1.878701 2.630773,1.625468 0.421452,-0.146921 1.169064,-0.220104 1.661358,-0.162632 z M 9.2751432,73.989087 c 1.4378678,-1.131028 0.5693883,-3.42038 -1.2975421,-3.42038 -1.1973813,0 -1.9740681,0.773186 -1.9740681,1.965171 0,1.025324 0.9688772,2.003579 1.984375,2.003579 0.3245524,0 0.9038084,-0.246767 1.2872352,-0.54837 z m 51.3291648,0 c 1.422358,-1.118828 0.612169,-3.42038 -1.204037,-3.42038 -1.841555,0 -2.708433,2.029026 -1.41814,3.319317 0.793668,0.79367 1.697389,0.8285 2.622177,0.101063 z M 37.15932,69.605565 C 36.882791,68.998653 36.783752,68.981206 33.615063,68.981206 H 30.35528 l -0.172144,0.685883 c -0.148582,0.591989 0.07619,0.936135 1.641941,2.513978 l 1.814089,1.828099 1.902315,-1.88962 c 1.73283,-1.721266 1.876972,-1.945249 1.617839,-2.513981 z m -22.490683,0.260527 c 1.055026,-0.248862 1.918229,-0.558331 1.918229,-0.68771 0,-0.380722 -1.371079,-2.608522 -1.553197,-2.523715 -0.327427,0.152479 -3.473886,3.566171 -3.473886,3.768931 0,0.113755 0.26789,0.136658 0.595312,0.0509 0.327422,-0.08576 1.458516,-0.359543 2.513542,-0.608402 z m 41.06398,0.504177 c -0.01812,-0.285869 -3.397869,-3.890285 -3.519014,-3.752945 -0.32254,0.365656 -1.495488,2.389883 -1.495488,2.580857 0,0.125119 1.041797,0.474596 2.315104,0.776618 2.751278,0.652592 2.715366,0.64733 2.699398,0.39547 z M 27.843683,69.390107 c 0.882639,-0.88264 0.830868,-1.855671 -0.150977,-2.837514 -0.64071,-0.640709 -0.944253,-0.766638 -1.521354,-0.631145 -0.935157,0.219557 -1.91157,1.323121 -1.91157,2.160498 0,0.928933 1.112251,1.957594 2.116667,1.957594 0.515506,0 1.057862,-0.240059 1.467234,-0.649433 z m 14.377656,0.186412 c 1.468504,-1.21924 0.639538,-3.505729 -1.271003,-3.505729 -1.052036,0 -1.672666,0.470699 -1.988515,1.50813 -0.192678,0.632862 0.412789,2.059763 0.968957,2.283537 0.714316,0.287404 1.75674,0.157273 2.290561,-0.285938 z M 21.37139,68.181527 c 0.821187,-0.221123 0.996571,-0.39711 1.100338,-1.104127 0.132046,-0.899684 0.11076,-0.924582 -2.716911,-3.178033 l -1.230719,-0.980797 -1.003912,1.0281 -1.003908,1.028096 1.159772,1.888255 c 1.275252,2.076265 1.105783,2.0158 3.69534,1.318506 z m 28.297313,-1.331754 1.127967,-1.866849 -1.000318,-1.02442 -1.000321,-1.024421 -2.058241,1.634498 c -1.785911,1.418238 -2.039316,1.722019 -1.915216,2.295959 0.198977,0.920215 0.461439,1.145931 1.738826,1.495377 1.844955,0.504717 1.908595,0.47379 3.107303,-1.510144 z M 37.193571,66.392915 c 0.205954,-0.384829 -0.09273,-0.825752 -1.622965,-2.395869 L 33.695234,62.0728 31.887926,63.866263 c -1.670087,1.657289 -2.082297,2.370513 -1.630921,2.821887 0.09701,0.09702 1.640637,0.17639 3.430273,0.17639 2.850764,0 3.285156,-0.05843 3.506293,-0.471625 z M 26.380704,63.954123 c 0.598876,0 1.298958,0.112437 1.555739,0.249862 0.380256,0.203509 0.830239,-0.115948 2.425541,-1.721969 l 1.958673,-1.971832 -1.862711,-1.862711 -1.862712,-1.862712 -1.122965,0.252315 c -0.72507,0.162912 -1.459622,0.159358 -2.073098,-0.01003 -0.94682,-0.26143 -0.957845,-0.254675 -3.161427,1.937462 -1.216213,1.209894 -2.211295,2.283505 -2.211295,2.385801 0,0.102293 0.863203,0.894887 1.918229,1.761312 1.846721,1.5166 1.944862,1.561667 2.632694,1.208913 0.392957,-0.201527 1.204455,-0.366413 1.803332,-0.366413 z m 19.385297,-1.181661 c 0.841598,-0.703419 1.496441,-1.368065 1.455209,-1.476989 -0.04123,-0.108926 -0.999202,-1.162897 -2.128819,-2.342158 l -2.053852,-2.144112 -1.054984,0.23704 c -0.666221,0.149688 -1.454306,0.135681 -2.138606,-0.03801 l -1.083619,-0.275053 -1.888503,1.888503 -1.888503,1.888503 1.958673,1.971832 c 1.595302,1.606021 2.045285,1.925478 2.425541,1.721969 0.683839,-0.36598 2.648754,-0.28765 3.412077,0.136022 0.528746,0.293473 0.741085,0.30135 1.058334,0.03926 0.218281,-0.180326 1.085455,-0.90339 1.927052,-1.606809 z M 16.699425,61.540943 c -0.151159,-0.244581 -3.763894,-3.202535 -4.29868,-3.519575 -0.192312,-0.114012 0.235453,0.727734 0.95059,1.870543 0.715139,1.14281 1.464656,2.342497 1.665594,2.665971 l 0.365342,0.588132 0.725181,-0.694767 c 0.398851,-0.382122 0.665236,-0.791757 0.591973,-0.910304 z m 37.064269,-1.290987 c 0.844923,-1.382448 1.368523,-2.38583 1.163553,-2.229736 -0.20497,0.156091 -1.303793,1.033793 -2.441827,1.950447 l -2.069152,1.666648 0.731263,0.763272 c 0.402193,0.419802 0.809715,0.673193 0.9056,0.563092 0.09589,-0.110098 0.86564,-1.331275 1.710563,-2.713723 z M 20.745076,57.604123 c 1.819929,-1.929146 2.090211,-2.333615 1.900656,-2.844271 -0.219081,-0.590196 -0.266542,-0.595313 -5.521174,-0.595313 -4.48636,0 -5.300192,0.05971 -5.300192,0.388864 0,0.450461 6.073606,5.453684 6.508393,5.361387 0.159874,-0.03394 1.245417,-1.07374 2.412317,-2.310667 z m 31.626685,-0.148492 c 1.709869,-1.389661 3.108854,-2.698653 3.108854,-2.908872 0,-0.320397 -0.849352,-0.38222 -5.251236,-0.38222 -5.189058,0 -5.254442,0.007 -5.522161,0.595313 -0.241416,0.53046 -0.03686,0.844717 1.877796,2.884773 1.181801,1.259203 2.267789,2.300304 2.413309,2.313559 0.145521,0.01326 1.663568,-1.112896 3.373438,-2.502553 z M 35.613759,57.210536 c 1.20205,-1.251809 1.625267,-1.878557 1.563294,-2.315104 -0.08251,-0.581221 -0.182338,-0.600747 -3.438126,-0.672499 -3.173883,-0.06995 -3.362288,-0.0451 -3.524133,0.46483 -0.131088,0.413026 0.212717,0.970466 1.473438,2.389003 0.904436,1.017651 1.786813,1.850273 1.960843,1.850273 0.174027,0 1.058135,-0.772427 1.964684,-1.716503 z M 9.5092621,54.388528 c 1.1007939,-1.300914 0.1902441,-3.240239 -1.5213541,-3.240239 -1.6020748,0 -2.4864861,1.583669 -1.7024953,3.048569 0.5971585,1.115801 2.3535192,1.220224 3.2238494,0.19167 z M 27.843683,54.57344 c 0.409374,-0.409372 0.649433,-0.951728 0.649433,-1.467234 0,-0.944774 -1.011854,-2.116667 -1.827607,-2.116667 -1.621507,0 -2.732079,1.483773 -2.154409,2.878389 0.57963,1.399352 2.278988,1.759109 3.332583,0.705512 z m 13.980559,0.350528 c 0.93115,-0.424262 1.374616,-1.601785 0.970589,-2.57719 -0.30272,-0.730832 -1.224068,-1.357239 -1.996286,-1.357239 -0.586933,0 -1.686277,1.122921 -1.871438,1.91157 -0.135493,0.577101 -0.0096,0.880644 0.631145,1.521354 0.870559,0.870561 1.2646,0.957768 2.26599,0.501505 z m 19.014185,-0.53544 c 0.915395,-1.081808 0.360029,-2.90367 -0.988298,-3.242078 -0.900824,-0.226094 -2.202886,0.477946 -2.409989,1.30311 -0.54401,2.167512 1.984253,3.610068 3.398287,1.938968 z m -37.910845,-3.31038 0.57215,-0.969722 -2.193821,-2.205278 c -1.206601,-1.2129 -2.272842,-2.205276 -2.369423,-2.205276 -0.419934,0 -7.112122,5.608011 -7.112122,5.959915 0,0.330657 0.802177,0.390086 5.265531,0.390086 h 5.265534 z m 14.249471,0.238832 c 0.06197,-0.436547 -0.361244,-1.063295 -1.563294,-2.315105 -0.906549,-0.944075 -1.790657,-1.716503 -1.964684,-1.716503 -0.17403,0 -1.056407,0.832623 -1.960843,1.850274 -1.260721,1.418537 -1.604526,1.975977 -1.473438,2.389002 0.161845,0.509929 0.35025,0.534782 3.524133,0.464831 3.255788,-0.07175 3.355615,-0.09128 3.438126,-0.672499 z m 18.303562,0.352948 c 0,-0.373133 -6.643156,-5.972056 -7.08588,-5.972056 -0.125725,0 -1.204693,1.00003 -2.397713,2.222291 l -2.169122,2.222291 0.600836,0.94151 0.600837,0.941512 5.225521,0.01119 c 4.357418,0.0093 5.225521,-0.05159 5.225521,-0.366744 z m -25.002886,-4.12021 1.838126,-1.852322 -1.956271,-1.969415 c -1.593281,-1.603989 -2.042898,-1.923053 -2.423141,-1.719554 -0.676635,0.362125 -2.645431,0.289377 -3.394263,-0.125418 -0.601191,-0.333012 -0.752917,-0.268965 -2.300303,0.971034 l -1.65666,1.327563 2.300304,2.491184 c 1.916549,2.075583 2.410653,2.473876 2.961761,2.387434 0.363802,-0.05706 1.018646,-0.0176 1.455209,0.08773 0.436562,0.105315 0.916006,0.205565 1.065429,0.222784 0.149424,0.01722 1.098836,-0.802243 2.109809,-1.821018 z M 41.3613,49.088524 c 0.730052,0.03859 1.101942,-0.252788 3.098038,-2.427341 l 2.268397,-2.471198 -1.639326,-1.337124 c -1.573197,-1.283185 -1.668291,-1.322147 -2.357297,-0.965849 -0.820822,0.424463 -2.671461,0.491287 -3.362574,0.121415 -0.380243,-0.203499 -0.82986,0.115565 -2.423141,1.719554 l -1.956271,1.969415 1.845222,1.866003 c 1.765753,1.785636 1.885109,1.857719 2.771267,1.673635 0.509323,-0.105801 1.299382,-0.172632 1.755685,-0.14851 z M 14.651047,46.457491 c 1.282981,-1.037418 2.482618,-2.025031 2.665857,-2.194698 0.263509,-0.243985 0.146595,-0.489309 -0.559204,-1.173398 l -0.892366,-0.864915 -0.519628,0.8768 c -0.285795,0.482241 -1.136298,1.859066 -1.890006,3.059613 -0.753708,1.200547 -1.317945,2.182813 -1.253861,2.182813 0.06408,0 1.166228,-0.848797 2.449208,-1.886215 z m 38.819949,-0.958056 c -0.961715,-1.564349 -1.831898,-2.933801 -1.933742,-3.043225 -0.101843,-0.109423 -0.568319,0.196358 -1.036613,0.679517 l -0.851445,0.878467 2.717273,2.162392 c 1.494499,1.189315 2.747833,2.163455 2.785184,2.164754 0.03735,0.0013 -0.718944,-1.277556 -1.680657,-2.841905 z M 35.584854,42.200747 c 1.533027,-1.572982 1.815888,-1.994143 1.604539,-2.389055 -0.230407,-0.430519 -0.599014,-0.471884 -3.61329,-0.405479 -4.238691,0.09338 -4.342561,0.26539 -1.742491,2.885538 0.992577,1.000241 1.823908,1.818621 1.847403,1.818621 0.02349,0 0.880221,-0.859332 1.903839,-1.909625 z M 20.872608,41.419393 c 0.917062,-0.752435 1.683036,-1.377514 1.702168,-1.389063 0.01913,-0.01156 -0.024,-0.406963 -0.09585,-0.878697 -0.110281,-0.724048 -0.28286,-0.898686 -1.107532,-1.120748 -2.546813,-0.685784 -2.452799,-0.71028 -3.422076,0.891537 l -0.88651,1.465035 1.018802,1.191324 c 0.56034,0.655227 1.042387,1.195226 1.07121,1.199999 0.02883,0.0048 0.802733,-0.606952 1.719792,-1.359387 z m 29.308445,-1.061752 c 0.01485,-0.340246 -1.658257,-2.861852 -1.898867,-2.861852 -0.624316,0 -2.756439,0.63128 -3.021327,0.894556 -0.163835,0.162838 -0.363032,0.593725 -0.442658,0.957527 -0.124532,0.56895 0.102147,0.855985 1.620797,2.05236 l 1.765575,1.390901 0.984293,-1.126318 c 0.541361,-0.619474 0.987845,-1.207704 0.992187,-1.307174 z M 27.719717,39.632807 c 0.461579,-0.461576 0.773399,-1.053139 0.773399,-1.467234 0,-0.960329 -1.096598,-1.992701 -2.116667,-1.992701 -0.984964,0 -2.116667,1.023064 -2.116667,1.913477 0,1.11492 1.14731,2.246329 2.335456,2.303085 0.193096,0.0092 0.699111,-0.331256 1.124479,-0.756627 z m 14.797791,-0.214614 c 1.314453,-1.671055 -0.466132,-3.86265 -2.503164,-3.080967 -0.46331,0.177789 -1.202479,1.429192 -1.202479,2.035783 0,0.205883 0.246767,0.688047 0.54837,1.071473 0.785056,0.998038 2.361864,0.984909 3.157273,-0.0263 z m -26.31464,-1.515084 c 0.271196,-0.503578 0.438772,-0.961924 0.372393,-1.018542 -0.151175,-0.128955 -3.526117,-0.966333 -3.599383,-0.89307 -0.103794,0.103797 2.337959,2.827208 2.534811,2.827208 0.109506,0 0.420987,-0.412019 0.692179,-0.915596 z m 37.011599,-0.444087 c 0.672361,-0.747829 1.186113,-1.396045 1.141677,-1.440484 -0.08724,-0.08723 -3.434787,0.703715 -3.614399,0.854001 -0.151336,0.126627 0.849373,1.946166 1.070351,1.946166 0.09894,0 0.730011,-0.611857 1.402371,-1.359683 z M 37.15932,36.606847 c 0.259207,-0.568897 0.114205,-0.793496 -1.632336,-2.52838 l -1.916814,-1.904021 -1.868492,1.91719 c -1.681404,1.725221 -1.840611,1.978387 -1.590016,2.528379 0.268745,0.589833 0.391083,0.61119 3.500828,0.61119 3.12936,0 3.230563,-0.01802 3.50683,-0.624358 z M 23.50028,35.38558 c 1.073984,-1.073986 2.583638,-1.507939 3.871177,-1.112782 l 0.986726,0.302835 1.919751,-1.906937 1.919748,-1.906937 -1.886342,-1.899015 c -1.787435,-1.799445 -1.926521,-1.88501 -2.652617,-1.631891 -0.421452,0.146919 -1.16295,0.220816 -1.647775,0.164216 -0.87359,-0.101988 -0.901282,-0.0708 -3.087954,3.47755 -1.213554,1.969255 -2.371529,3.842409 -2.573279,4.162566 -0.344943,0.547394 -0.314243,0.597246 0.514855,0.836033 1.432084,0.412454 1.80663,0.343442 2.63571,-0.485638 z m 23.419728,0.305438 c 0.264647,-0.148103 -0.28512,-1.231638 -2.181757,-4.300014 l -2.535552,-4.102017 -0.895083,0.104495 c -0.492294,0.05747 -1.279667,-0.02957 -1.749716,-0.193431 -0.836705,-0.291677 -0.892352,-0.260499 -2.652418,1.48608 -0.98878,0.981204 -1.792081,1.846732 -1.785112,1.923395 0.007,0.07666 0.817832,1.008171 1.801918,2.070018 l 1.789247,1.93063 1.211639,-0.324062 c 1.044254,-0.279297 1.381662,-0.259133 2.442403,0.145968 0.67692,0.258519 1.425834,0.767747 1.664253,1.131618 0.38114,0.581697 0.560448,0.641281 1.484931,0.493451 0.578295,-0.09248 1.210657,-0.257234 1.405247,-0.366131 z M 9.4328094,35.064649 C 10.21744,34.222446 10.144453,32.907125 9.2751432,32.223325 8.8917164,31.921721 8.3124604,31.674955 7.987908,31.674955 c -0.3245525,0 -0.9038085,0.246766 -1.2872352,0.54837 -1.4328754,1.127102 -0.5698159,3.42038 1.2872352,3.42038 0.5907108,0 1.0929429,-0.201274 1.4449014,-0.579056 z m 51.3394716,0.04989 c 0.78784,-0.78784 0.705559,-2.204093 -0.167973,-2.891214 -0.924788,-0.727437 -1.828509,-0.692607 -2.622177,0.101063 -0.8075,0.807498 -0.837276,1.894637 -0.07415,2.706952 0.732449,0.779653 2.127324,0.820172 2.864297,0.0832 z m -40.142883,-4.35654 c 1.423027,-2.300678 2.544286,-4.226087 2.491687,-4.278685 -0.0526,-0.0526 -2.556346,1.286528 -5.563883,2.975837 -6.755652,3.794591 -6.809295,3.890254 -2.756273,4.915276 1.491588,0.377227 2.831041,0.65994 2.976562,0.628248 0.145521,-0.03169 1.42888,-1.939997 2.851907,-4.240676 z m 32.006946,3.548026 c 3.920323,-0.940015 3.837935,-1.078918 -2.882807,-4.860366 -3.004373,-1.69042 -5.504289,-3.031698 -5.555369,-2.980618 -0.07408,0.07408 2.761239,4.800045 4.844521,8.074934 0.215545,0.338836 0.531865,0.563986 0.702934,0.500335 0.171069,-0.06365 1.471893,-0.394079 2.890721,-0.734285 z M 35.473342,27.208511 c 1.452989,-1.46421 1.771828,-1.930362 1.62872,-2.38125 -0.168542,-0.531033 -0.349515,-0.560639 -3.426968,-0.560639 -3.110611,0 -3.260873,0.02536 -3.527018,0.595312 -0.247848,0.530775 -0.08807,0.788925 1.473827,2.38125 0.963496,0.982266 1.81773,1.785938 1.898296,1.785938 0.08057,0 0.95948,-0.819275 1.953143,-1.820611 z m 6.922424,-2.532988 c 0.357187,-0.357187 0.649433,-0.957912 0.649433,-1.334943 0,-0.931144 -1.101506,-1.984375 -2.075329,-1.984375 -1.192072,0 -1.999255,0.801176 -1.999255,1.984375 0,1.847002 2.09613,2.663964 3.425151,1.334943 z"
         id="path302" /></g></g></svg>
