<?xml version="1.0" encoding="UTF-8" standalone="no"?>
<!-- Created with Inkscape (http://www.inkscape.org/) -->

<svg
   width="40"
   height="40"
   viewBox="0 0 10.583333 10.583333"
   version="1.1"
   id="svg1192"
   xml:space="preserve"
   inkscape:version="1.2.2 (732a01da63, 2022-12-09)"
   sodipodi:docname="icon-photo.svg"
   xmlns:inkscape="http://www.inkscape.org/namespaces/inkscape"
   xmlns:sodipodi="http://sodipodi.sourceforge.net/DTD/sodipodi-0.dtd"
   xmlns="http://www.w3.org/2000/svg"
   xmlns:svg="http://www.w3.org/2000/svg"><sodipodi:namedview
     id="namedview1194"
     pagecolor="#ffffff"
     bordercolor="#000000"
     borderopacity="0.25"
     inkscape:showpageshadow="2"
     inkscape:pageopacity="0.0"
     inkscape:pagecheckerboard="0"
     inkscape:deskcolor="#d1d1d1"
     inkscape:document-units="mm"
     showgrid="false"
     inkscape:zoom="8.4359982"
     inkscape:cx="39.770042"
     inkscape:cy="12.32812"
     inkscape:window-width="1920"
     inkscape:window-height="1017"
     inkscape:window-x="-8"
     inkscape:window-y="-8"
     inkscape:window-maximized="1"
     inkscape:current-layer="layer1-5" /><defs
     id="defs1189"><linearGradient
       id="paint0_linear"
       x1="3.69867"
       y1="4.89825"
       x2="22.5688"
       y2="37.2522"
       gradientUnits="userSpaceOnUse"><stop
         offset="0.259336"
         stop-color="#FFDB6E"
         id="stop1779" /><stop
         offset="1"
         stop-color="#FFBC5E"
         id="stop1781" /></linearGradient><linearGradient
       id="paint1_linear"
       x1="1.17724"
       y1="18.7359"
       x2="2.78931"
       y2="19.2346"
       gradientUnits="userSpaceOnUse"><stop
         offset="0.259336"
         stop-color="#FFDB6E"
         id="stop1784" /><stop
         offset="1"
         stop-color="#FFBC5E"
         id="stop1786" /></linearGradient><linearGradient
       id="paint3_linear"
       x1="3.26667"
       y1="0.900025"
       x2="27.6816"
       y2="36.6089"
       gradientUnits="userSpaceOnUse"><stop
         offset="0.259336"
         stop-color="#FFDB6E"
         id="stop1794" /><stop
         offset="1"
         stop-color="#FFBC5E"
         id="stop1796" /></linearGradient><linearGradient
       id="paint5_linear"
       x1="14.1208"
       y1="12.223"
       x2="27.511"
       y2="27.0155"
       gradientUnits="userSpaceOnUse"><stop
         offset="0.259336"
         stop-color="#FFDB6E"
         id="stop1804" /><stop
         offset="1"
         stop-color="#FFBC5E"
         id="stop1806" /></linearGradient><linearGradient
       id="paint7_linear"
       x1="16.2288"
       y1="14.5995"
       x2="25.5157"
       y2="24.8592"
       gradientUnits="userSpaceOnUse"><stop
         offset="0.259336"
         stop-color="#FFDB6E"
         id="stop1814" /><stop
         offset="1"
         stop-color="#FFBC5E"
         id="stop1816" /></linearGradient></defs><g
     inkscape:label="Capa 1"
     inkscape:groupmode="layer"
     id="layer1"><g
       inkscape:label="Capa 1"
       id="layer1-5"
       transform="matrix(0.15511877,0,0,0.15511877,-0.55750567,-2.9123852)"><g
         style="fill-opacity:1;stroke:#ffd76c;fill:none"
         id="g2471"
         transform="matrix(3.3997329,0,0,3.3997329,-3.4877932,12.040364)"><path
           d="m 12,18 h 0.01 M 11,6 h 2 M 9.2,21 h 5.6 c 1.1201,0 1.6802,0 2.108,-0.218 0.3763,-0.1917 0.6823,-0.4977 0.874,-0.874 C 18,19.4802 18,18.9201 18,17.8 V 6.2 C 18,5.0799 18,4.51984 17.782,4.09202 17.5903,3.71569 17.2843,3.40973 16.908,3.21799 16.4802,3 15.9201,3 14.8,3 H 9.2 C 8.0799,3 7.51984,3 7.09202,3.21799 6.71569,3.40973 6.40973,3.71569 6.21799,4.09202 6,4.51984 6,5.07989 6,6.2 v 11.6 c 0,1.1201 0,1.6802 0.21799,2.108 0.19174,0.3763 0.4977,0.6823 0.87403,0.874 C 7.51984,21 8.07989,21 9.2,21 Z"
           stroke="#000000"
           stroke-width="2"
           stroke-linecap="round"
           stroke-linejoin="round"
           id="path2462"
           style="fill-opacity:1;stroke:#ffd76c;fill:none" /></g></g></g></svg>
